<?xml version="1.0" encoding="utf-8"?>
<!-- Generator: Adobe Illustrator 16.0.0, SVG Export Plug-In . SVG Version: 6.00 Build 0)  -->
<!DOCTYPE svg PUBLIC "-//W3C//DTD SVG 1.1//EN" "http://www.w3.org/Graphics/SVG/1.1/DTD/svg11.dtd">
<svg version="1.1" id="Layer_1" xmlns="http://www.w3.org/2000/svg" xmlns:xlink="http://www.w3.org/1999/xlink" x="0px" y="0px"
	 width="800px" height="800px" viewBox="-40.455 -40.434 800 800" enable-background="new -40.455 -40.434 800 800"
	 xml:space="preserve">
<g id="Layer_1_1_" display="none">
</g>
<g id="Layer_2" display="none">
	<path id="Blue" display="inline" fill="#3C5996" d="M884.33,675.812c0,44.891-36.729,81.619-81.617,81.619h-551.61
		c-44.892,0-81.62-36.729-81.62-81.619v-551.75c0-44.891,36.729-81.62,81.62-81.62h551.609c44.891,0,81.617,36.729,81.617,81.62
		L884.33,675.812L884.33,675.812z"/>
	<path id="f" display="inline" fill="#FFFFFF" d="M574.177,450.539h-52.236v-87.945h52.236c0,0,0-58.765,0-71.926
		s-2.652-101.175,109.98-101.175c15.102,0,49.379,0,79.509,0c0,38.226,0,79.58,0,91.551c-22.578,0-46.932,0-58.49,0
		c-11.562,0-23.264,12.105-23.264,21.084c0,8.978,0,60.126,0,60.126s72.233,0,81.619,0c-3.265,46.115-9.998,88.285-9.998,88.285
		h-72.027v261.387H574.177V450.539z"/>
	<path id="f_1_" display="inline" fill="#FFFFFF" d="M511.091,465.306H454.1v-95.948h56.99c0,0,0-64.113,0-78.473
		c0-14.36-2.896-110.383,119.992-110.383c16.475,0,53.872,0,86.744,0c0,41.705,0,86.823,0,99.883c-24.635,0-51.203,0-63.813,0
		c-12.613,0-25.379,13.208-25.379,23.003c0,9.795,0,65.6,0,65.6s78.808,0,89.047,0c-3.563,50.313-10.907,96.318-10.907,96.318
		h-78.585v285.176H511.091V465.306z"/>
	<path display="inline" opacity="0.2" fill="#FFFFFF" enable-background="new    " d="M126.271,312.539
		c111.169,41.668,250.51,66.453,401.792,66.453c150.555,0,289.324-24.563,400.26-65.896V37.198
		c0-38.421-31.189-69.606-69.608-69.606H195.88c-38.424,0-69.609,31.186-69.609,69.606V312.539L126.271,312.539z"/>
	<path display="inline" opacity="0.38" fill="#FFFFFF" enable-background="new    " d="M75.041,659.929
		c0-45.063,29.931-81.93,66.889-81.93h769.223c36.79,0,66.891,36.867,66.891,81.93v106.713c0,45.266-30.101,81.93-66.891,81.93
		H141.928c-36.958,0-66.889-36.664-66.889-81.93L75.041,659.929L75.041,659.929z"/>
</g>
<g id="Layer_3" display="none">
</g>
<g id="Layer_4" display="none">
	<path display="inline" fill="#37538D" d="M867.831,629.494c0,67.119-54.408,121.531-121.528,121.531h-476.03
		c-67.119,0-121.528-54.412-121.528-121.531V153.422c0-67.119,54.41-121.529,121.528-121.529h476.03
		c67.12,0,121.528,54.411,121.528,121.529V629.494L867.831,629.494z"/>
	
		<linearGradient id="SVGID_1_" gradientUnits="userSpaceOnUse" x1="397.6096" y1="59.5352" x2="397.6096" y2="402.3672" gradientTransform="matrix(1 0 0 1 110.6797 4.8086)">
		<stop  offset="0" style="stop-color:#8799BF"/>
		<stop  offset="0.0811" style="stop-color:#8295BC"/>
		<stop  offset="0.2865" style="stop-color:#778BB5"/>
		<stop  offset="1" style="stop-color:#415C94"/>
	</linearGradient>
	<path display="inline" fill="url(#SVGID_1_)" d="M867.831,153.422c0-67.119-54.408-121.529-121.528-121.529h-476.03
		c-67.119,0-121.528,54.411-121.528,121.529v190.233c100.283,40.88,225.412,65.157,361.159,65.157
		c134.268,0,258.179-23.768,357.931-63.866V153.422H867.831z"/>
	<path display="inline" fill="#B9C4D9" d="M783.465,37.689c-11.717-3.759-24.2-5.796-37.163-5.796h-476.03
		c-12.963,0-25.447,2.037-37.162,5.796H783.465z"/>
	<path display="inline" fill="#687FAD" d="M148.742,615.74v13.754c0,67.119,54.41,121.531,121.528,121.531h476.03
		c67.12,0,121.529-54.412,121.529-121.531V615.74H148.742z"/>
	<path display="inline" fill="#FFFFFF" d="M700.589,458.105c0,0,7.402-48.529,10.991-99.237c-10.317,0-89.741,0-89.741,0
		s0-56.241,0-66.112s12.864-23.184,25.577-23.184c12.712,0,43.806,0,68.633,0c0-13.161,0-58.633,0-100.662
		c-33.129,0-75.141,0-91.741,0c-123.847,0-120.931,96.773-120.931,111.244c0,14.472,0,79.086,0,79.086H426.5v98.865h76.878v314.521
		H621.39V458.105H700.589z"/>
</g>
<g id="Layer_4_copy">
	<path fill="#37538D" d="M627.785-35.75H97.042c-74.833,0-135.496,59.983-135.496,133.975v524.828
		c0,73.993,60.664,133.978,135.496,133.978H356.94V434.112h-85.713v-108.99h85.714c0,0,0-71.231,0-87.186
		c0-15.953-3.251-122.637,134.83-122.637c18.511,0,65.349,0,102.285,0c0,46.333,0,96.462,0,110.971c-27.681,0-62.348,0-76.523,0
		c-14.172,0-28.515,14.675-28.515,25.558c0,10.883,0,72.883,0,72.883s88.553,0,100.056,0c-4.001,55.901-12.254,109.4-12.254,109.4
		h-88.304v322.919h139.269c74.834,0,135.497-59.984,135.497-133.978V98.226C763.282,24.234,702.619-35.75,627.785-35.75z"/>
	
		<linearGradient id="SVGID_2_" gradientUnits="userSpaceOnUse" x1="251.7351" y1="-5.0791" x2="251.7351" y2="369.743" gradientTransform="matrix(1 0 0 1 110.6797 4.8086)">
		<stop  offset="0" style="stop-color:#8799BF"/>
		<stop  offset="0.0811" style="stop-color:#8295BC"/>
		<stop  offset="0.2865" style="stop-color:#778BB5"/>
		<stop  offset="1" style="stop-color:#415C94"/>
	</linearGradient>
	<path fill="url(#SVGID_2_)" d="M627.785-35.75H97.042c-74.833,0-135.496,59.983-135.496,133.975V307.94
		c88.493,35.668,194.347,59.857,309.683,68.401v-51.219h85.713c0,0,0-71.231,0-87.186c0-15.953-3.251-122.637,134.83-122.637
		c18.511,0,65.349,0,102.285,0c0,46.333,0,96.462,0,110.971c-27.681,0-62.348,0-76.523,0c-14.172,0-28.514,14.675-28.514,25.558
		c0,10.883,0,72.883,0,72.883s88.552,0,100.055,0c-0.854,11.932-1.9,23.756-3.022,34.972
		c64.151-12.017,123.806-29.083,177.231-50.319V98.226C763.282,24.234,702.619-35.75,627.785-35.75z"/>
	<path fill="#B9C4D9" d="M669.22-29.36c-13.063-4.144-26.982-6.39-41.435-6.39H97.042c-14.453,0-28.372,2.246-41.433,6.39H669.22z"
		/>
	<g>
		<path fill="#687FAD" d="M356.94,607.89H-38.455v15.163c0,73.993,60.664,133.978,135.496,133.978h259.896V607.89H356.94z"/>
		<path fill="#687FAD" d="M488.516,607.89v149.141h139.269c74.834,0,135.497-59.984,135.497-133.978V607.89H488.516z"/>
	</g>
</g>
</svg>
